<?xml version="1.0" encoding="iso-8859-1"?>
<!-- Generator: Adobe Illustrator 19.0.0, SVG Export Plug-In . SVG Version: 6.00 Build 0)  -->
<svg version="1.1" id="Capa_1" xmlns="http://www.w3.org/2000/svg" xmlns:xlink="http://www.w3.org/1999/xlink" x="0px" y="0px"
	 viewBox="0 0 512.001 512.001" style="enable-background:new 0 0 512.001 512.001;" xml:space="preserve">
    <style>path{ fill:#FBEF38;}</style>
<g>
	<g>
		<path d="M421.639,441.4c-2.67-3.172-7.399-3.58-10.571-0.911c-43.307,36.439-98.377,56.507-155.067,56.507
			c-7.004,0-13.958-0.315-20.857-0.902c-8.925-15.915-37.515-62.034-71.516-66.947c-1.377-0.199-2.678-0.387-3.756-4.31
			c-1.241-4.518-1.368-11.398-1.515-19.364c-0.308-16.681-0.691-37.441-11.066-57.448c-12.276-23.675-32.323-24.194-45.587-24.538
			c-13.297-0.344-14.228-0.913-14.228-8.686c0-29.728-30.695-56.481-72.408-64.082c1.068-50.198,17.36-97.877,47.287-138.2
			c2.47-3.327,1.773-8.025-1.553-10.495c-3.327-2.469-8.026-1.774-10.495,1.553C17.396,147.917,0.002,200.624,0.002,256
			c0,68.38,26.629,132.667,74.98,181.019c1.003,1.003,2.024,1.983,3.041,2.967c0.409,0.396,0.812,0.801,1.223,1.194
			c1.015,0.97,2.046,1.921,3.074,2.872c0.438,0.405,0.87,0.817,1.311,1.219c1.178,1.075,2.371,2.131,3.566,3.182
			c0.27,0.237,0.536,0.478,0.806,0.713c1.382,1.205,2.777,2.391,4.18,3.563c0.054,0.045,0.108,0.091,0.162,0.137
			c45.887,38.281,103.165,59.133,163.655,59.133c60.218,0,118.72-21.319,164.728-60.031
			C423.899,449.303,424.306,444.57,421.639,441.4z M96.788,436.905c-0.453-0.4-0.907-0.798-1.358-1.202
			c-0.801-0.716-1.596-1.441-2.389-2.17c-0.618-0.568-1.233-1.14-1.847-1.717c-0.698-0.655-1.396-1.312-2.088-1.978
			c-0.678-0.652-1.35-1.313-2.023-1.974c-0.654-0.643-1.31-1.282-1.958-1.933c-0.586-0.589-1.159-1.187-1.737-1.781
			c-1.849-1.898-3.677-3.818-5.468-5.782c-38.267-41.949-60.339-95.714-62.692-152.261c-0.001-0.028-0.002-0.056-0.003-0.083
			c32.719,6.863,57.244,27.269,57.244,48.775c0,22.938,17.358,23.388,28.844,23.685c12.578,0.326,24.458,0.634,32.657,16.445
			c8.758,16.889,9.105,35.702,9.384,50.818c0.324,17.563,0.659,35.724,18.129,38.247c12.501,1.807,26.96,12.688,41.814,31.469
			c5.135,6.493,9.516,12.915,12.911,18.257C171.834,486.343,130.536,466.645,96.788,436.905z"/>
	</g>
</g>
<g>
	<g>
		<path d="M458.937,99.933C456.312,44.385,410.301,0,354.113,0c-13.386,0-26.193,2.524-37.974,7.112
			C296.55,2.397,276.333,0,256.002,0c-35.763,0-70.366,7.233-102.848,21.5C121.78,35.279,93.868,54.928,70.193,79.9
			c-2.851,3.007-2.724,7.755,0.283,10.606c1.451,1.375,3.308,2.058,5.161,2.058c1.987,0,3.97-0.785,5.446-2.341
			c22.293-23.514,48.571-42.013,78.105-54.985c30.569-13.425,63.143-20.233,96.815-20.233c13.154,0,26.255,1.068,39.147,3.172
			c-21.14,14.412-36.758,36.343-42.994,61.909c-13.918,4.23-25.208,9.585-33.589,15.952c-14.752,11.208-20.363,21.237-16.677,29.81
			c3.089,7.185,11.392,10.673,26.511,10.673c6.743,0,14.868-0.706,24.463-2.077c1.523,6.202,3.512,12.469,5.973,18.796
			c-10.642,2.739-17.061,9.94-25.21,19.084c-4.556,5.112-9.721,10.908-16.914,17.621c-15.509,14.475-15.635,26.95-13.01,34.866
			c5.12,15.436,24.586,25.783,54.816,29.137c20.562,2.281,48.234,9.696,51.15,47.586c0.911,11.855-2.64,18.113-7.134,26.038
			c-2.721,4.796-5.805,10.233-7.891,17.188c-3.17,10.566-3.185,23.582-0.039,34.816c3.999,14.282,12.474,24.766,24.506,30.32
			c3.92,1.81,7.917,2.602,11.919,2.602c21.537-0.001,43.179-22.948,53.331-33.713c1.035-1.098,1.928-2.045,2.655-2.788
			c6.213-6.338,8.335-19.489,11.094-40.396c1.188-9.009,2.535-19.221,4.23-23.176c3.008-7.017,23.711-25.649,37.451-36.636
			c1.688-1.349,2.712-3.362,2.81-5.521s-0.74-4.255-2.299-5.752c-0.222-0.213-20.766-20.014-35.889-40.455
			c1.387-1.596,2.781-3.223,4.174-4.888c6.056-7.233,11.564-14.414,16.538-21.539c4.718,4.011,10.022,8.961,16.076,15.013
			c6.974,6.975,16.139,10.463,27.409,10.463c7.558,0,16.067-1.576,25.49-4.716c1.914,12.324,2.896,24.88,2.896,37.604
			c0,61.244-22.997,119.619-64.755,164.373c-2.827,3.03-2.663,7.776,0.367,10.603c1.445,1.349,3.283,2.018,5.116,2.018
			c2.008,0,4.01-0.801,5.487-2.384c44.36-47.541,68.79-109.552,68.79-174.609C512.002,198.956,493.652,145.004,458.937,99.933z
			 M216.101,119.862c0.839-1.834,3.806-6,11.542-11.879c5.575-4.235,12.904-7.99,21.853-11.22c-0.209,2.702-0.329,5.429-0.329,8.183
			c0,4.863,0.314,9.776,0.94,14.734C226.096,123.025,218.288,120.884,216.101,119.862z M423.926,269.387
			c-11.089,9.273-30.974,26.851-35.378,37.127c-2.509,5.855-3.809,15.711-5.315,27.124c-1.32,10.008-3.777,28.636-6.934,31.855
			c-0.783,0.799-1.742,1.817-2.856,2.997c-8.978,9.52-32.82,34.807-48.046,27.782c-17.504-8.079-20.762-32.604-16.383-47.202
			c1.6-5.335,4.015-9.59,6.57-14.095c4.83-8.517,10.306-18.168,9.043-34.592c-1.197-15.571-5.774-27.946-13.988-37.835
			c-10.878-13.094-27.858-21.005-50.466-23.513c-27.515-3.053-39.856-11.789-42.229-18.948c-2.254-6.797,3.653-14.179,9.005-19.175
			c7.697-7.184,13.342-13.518,17.878-18.607c8.461-9.493,12.481-13.95,20.203-15c8.305,16.924,19.853,34.244,34.61,51.868
			c24.598,29.379,48.862,48.273,49.883,49.063c1.352,1.045,2.972,1.568,4.591,1.568c1.62,0,3.239-0.523,4.591-1.568
			c0.818-0.633,16.563-12.899,35.442-32.861C404.638,249.19,416.818,262.145,423.926,269.387z M354.11,252.609
			c-18.945-15.958-89.94-80.269-89.94-147.663c0-49.595,40.348-89.942,89.943-89.942c49.594,0,89.942,40.348,89.942,89.942
			C444.055,172.253,373.049,236.639,354.11,252.609z M451.811,202.04c-7.024-7.024-13.003-12.57-18.39-17.048
			c12.873-20.982,20.925-41.421,24.092-61.152c15.924,24.282,27.444,51.426,33.734,79.675
			C477.313,208.412,460.918,211.146,451.811,202.04z"/>
	</g>
</g>
<g>
	<g>
		<path d="M184.588,145.841c-2.76-6.443-7-10.799-12.601-12.948c-11.582-4.441-25.466,1.985-38.889,8.198
			c-2.8,1.295-5.695,2.636-8.438,3.811c-23.491,10.064-39.371,49.816-29.295,73.335c2.755,6.431,7.065,10.837,12.811,13.095
			c3.003,1.18,6.166,1.689,9.446,1.689c10.438,0,22.049-5.148,33.367-10.166c2.011-0.891,4-1.773,5.948-2.608
			c11.14-4.772,20.785-16.598,26.461-32.444C188.863,172.545,189.308,156.858,184.588,145.841z M169.273,182.743
			c-4.147,11.581-11.138,20.667-18.243,23.711c-2.005,0.858-4.051,1.766-6.121,2.684c-10.924,4.843-24.52,10.869-31.245,8.229
			c-1.212-0.476-2.998-1.516-4.506-5.039c-3.132-7.309-2.27-18.884,2.251-30.208c4.519-11.322,11.86-20.299,19.161-23.427
			c2.942-1.26,5.937-2.646,8.833-3.986c8.497-3.933,17.946-8.307,24.104-8.307c1.163,0,2.211,0.156,3.11,0.501
			c1.081,0.415,2.692,1.368,4.182,4.847C174.014,159.259,173.431,171.135,169.273,182.743z"/>
	</g>
</g>
<g>
	<g>
		<path d="M354.113,58.579c-4.144,0-7.502,3.359-7.502,7.502c0,4.143,3.358,7.502,7.502,7.502c17.293,0,31.363,14.069,31.363,31.363
			c0,17.294-14.07,31.363-31.363,31.363c-17.294,0-31.363-14.069-31.363-31.363c0-8.261,3.185-16.059,8.968-21.956
			c2.9-2.958,2.855-7.708-0.104-10.609c-2.957-2.9-7.707-2.855-10.609,0.104c-8.55,8.72-13.258,20.247-13.258,32.461
			c0,25.568,20.801,46.368,46.368,46.368c25.568,0,46.368-20.8,46.368-46.368C400.482,79.379,379.681,58.579,354.113,58.579z"/>
	</g>
</g>
<g>
</g>
<g>
</g>
<g>
</g>
<g>
</g>
<g>
</g>
<g>
</g>
<g>
</g>
<g>
</g>
<g>
</g>
<g>
</g>
<g>
</g>
<g>
</g>
<g>
</g>
<g>
</g>
<g>
</g>
</svg>
