<svg height="512pt" viewBox="0 -99 512 511" width="512pt" xmlns="http://www.w3.org/2000/svg">
    <style>path{ fill:#FBEF38;}</style>
    <g fill-rule="evenodd"><path d="m231.6875 190.101562h-53.441406c-5.519532 0-10 4.476563-10 10v51.484376c0 5.519531 4.480468 10 10 10h53.441406c5.523438 0 10-4.480469 10-10v-51.484376c0-5.523437-4.476562-10-10-10zm-10 51.484376h-33.441406v-31.484376h33.441406zm0 0"/><path d="m475.753906 122.632812c0-30.019531-24.421875-54.441406-54.4375-54.441406-30.019531 0-54.441406 24.421875-54.441406 54.441406 0 30.015626 24.421875 54.4375 54.441406 54.4375 30.015625 0 54.4375-24.421874 54.4375-54.4375zm-88.878906 0c0-18.992187 15.449219-34.441406 34.441406-34.441406 18.988282 0 34.4375 15.449219 34.4375 34.441406 0 18.988282-15.449218 34.4375-34.4375 34.4375-18.992187 0-34.441406-15.449218-34.441406-34.4375zm0 0"/><path d="m502 293.070312h-64.515625l66.671875-133.542968c.074219-.144532.144531-.292969.210938-.441406 5.066406-11.527344 7.632812-23.789063 7.632812-36.453126 0-50.003906-40.679688-90.683593-90.683594-90.683593s-90.6875 40.679687-90.6875 90.683593c0 12.664063 2.570313 24.929688 7.632813 36.453126.066406.148437.136719.296874.207031.441406l66.675781 133.542968h-111.042969v-99.976562l24.671876-24.671875c1.875-1.875 2.929687-4.417969 2.929687-7.070313 0-2.652343-1.054687-5.195312-2.929687-7.070312l-150.851563-150.851562c-3.90625-3.90625-10.238281-3.90625-14.140625 0l-58.867188 58.867187c-3.902343 3.902344-3.902343 10.234375 0 14.140625 3.90625 3.90625 10.238282 3.90625 14.144532 0l51.792968-51.796875 136.710938 136.710937-13.460938 13.460938-116.179687-116.183594c-1.875-1.875-4.417969-2.929687-7.070313-2.929687-2.652343 0-5.195312 1.054687-7.070312 2.929687l-116.179688 116.179688-13.460937-13.457032 29.632813-29.628906c3.902343-3.90625 3.902343-10.238281 0-14.144531-3.90625-3.902344-10.238282-3.902344-14.144532 0l-36.699218 36.703125c-3.90625 3.902344-3.90625 10.234375 0 14.140625l24.671874 24.675781v99.972656h-17.601562c-5.523438 0-10 4.480469-10 10 0 5.523438 4.476562 10 10 10h492c5.523438 0 10-4.476562 10-10 0-5.523437-4.476562-10-10-10zm-151.367188-170.4375c0-38.976562 31.707032-70.6875 70.683594-70.6875 38.976563 0 70.683594 31.710938 70.683594 70.6875 0 9.796876-1.96875 19.277344-5.847656 28.1875l-64.835938 129.863282-64.839844-129.863282c-3.878906-8.910156-5.84375-18.390624-5.84375-28.1875zm-250.613281 170.4375v-82.96875h33.433594v82.96875zm53.433594 0v-92.96875c0-5.523437-4.476563-10-10-10h-53.433594c-5.523437 0-10 4.476563-10 10v92.96875h-32.417969v-99.976562l113.25-113.25 113.25 113.25v99.976562zm0 0"/><path d="m74.984375 106.367188c5.507813 0 10-4.492188 10-10 0-5.507813-4.492187-10-10-10s-10 4.492187-10 10c0 5.507812 4.492187 10 10 10zm0 0"/></g></svg>